<?xml version="1.0"?>
<svg xmlns="http://www.w3.org/2000/svg" xmlns:xlink="http://www.w3.org/1999/xlink" version="1.1" id="Capa_1" x="0px" y="0px" viewBox="0 0 384.086 384.086" style="enable-background:new 0 0 384.086 384.086;" xml:space="preserve" width="512px" height="512px" class=""><g><g>
	<g>
		<path d="M382.668,71.07c-0.688-1.56-17.424-38.304-60.592-39.032c-0.44-0.008-0.856-0.008-1.28-0.008    c-13.432,0-23.856,3.856-31.728,9.56c-5.112-11.536-13.08-23.824-25.032-36.544c-6.072-6.448-16.184-6.752-22.616-0.704    c-6.448,6.048-6.76,16.176-0.712,22.616c23.912,25.456,26.336,46.792,23.208,61.376c-20.88-11.096-44.512-17.656-69.648-18.072    c-0.944-0.168-1.904-0.264-2.872-0.264c-75.24,0-132.368,54.904-153.512,147.176C27.58,228.038,0.372,259.926,0.052,294.102    c-0.152,16.296,6,31.152,17.784,42.96c38.912,39.024,93.408,47.024,131.56,47.024c25.272,0,43.392-3.512,45.064-3.848    c92.36-16.52,152.048-77.304,152.048-154.88c0-41.216-16.216-78.648-42.488-106.456c4.904,1.464,10.368,2.384,16.496,2.488    c0.456,0.008,0.896,0.008,1.344,0.008c42.2,0,59.84-35.36,60.576-36.88C384.484,80.286,384.572,75.366,382.668,71.07z     M314.492,225.35c0.016,74.488-67.696,113.016-126,123.44c-0.952,0.184-95.568,18.256-148.016-34.336    c-5.824-5.832-8.504-12.184-8.44-20.008c0.168-22.416,22.864-49.352,31.584-57.824c2.288-2.208,3.864-5.056,4.528-8.168    c6.272-29.4,33.432-124.744,120.856-126.44c0.856,0.144,1.736,0.216,2.616,0.216C259.372,102.23,314.492,157.462,314.492,225.35z     M321.796,89.406c-0.232,0-0.48,0-0.72,0c-14.312-0.256-18.248-7.704-19.224-13.04c1.144-5.2,5.208-12.336,18.944-12.336    c0.232,0,0.48,0,0.728,0c13.816,0.232,22.584,7.504,27.36,13.216C344.036,82.662,335.284,89.406,321.796,89.406z" data-original="#000000" class="active-path" data-old_color="#000000" fill="#FFFFFF"/>
	</g>
</g><g>
	<g>
		<path d="M185.708,142.862c-1.616-8.68-9.912-14.432-18.648-12.816c-37.816,6.984-49.88,42.016-50.376,43.504    c-2.792,8.384,1.744,17.448,10.128,20.232c1.68,0.56,3.384,0.824,5.056,0.824c6.704,0,12.944-4.24,15.176-10.952    c0.064-0.184,6.704-18.616,25.832-22.152C181.564,159.894,187.308,151.55,185.708,142.862z" data-original="#000000" class="active-path" data-old_color="#000000" fill="#FFFFFF"/>
	</g>
</g></g> </svg>
